<svg id="a" xmlns="http://www.w3.org/2000/svg" viewBox="0 0 1216.78 644.03">
    <g id="b">
        <line x1="181.03" y1="384.43" x2="323.03" y2="347.43"
            style="fill:none; stroke:#90b8c9; stroke-miterlimit:10; stroke-width:4px;" />
        <line x1="323.03" y1="347.43" x2="466.03" y2="333.43"
            style="fill:none; stroke:#90b8c9; stroke-miterlimit:10; stroke-width:4px;" />
        <line x1="466.03" y1="333.43" x2="607.03" y2="341.43"
            style="fill:none; stroke:#90b8c9; stroke-miterlimit:10; stroke-width:4px;" />
        <line x1="607.03" y1="341.43" x2="749.03" y2="332.43"
            style="fill:none; stroke:#90b8c9; stroke-miterlimit:10; stroke-width:4px;" />
        <line x1="749.03" y1="332.43" x2="890.03" y2="312.43"
            style="fill:none; stroke:#90b8c9; stroke-miterlimit:10; stroke-width:4px;" />
        <line x1="890.03" y1="312.43" x2="1032.03" y2="346.43"
            style="fill:none; stroke:#90b8c9; stroke-miterlimit:10; stroke-width:4px;" />
        <line x1="1173.03" y1="318.43" x2="1032.03" y2="346.43"
            style="fill:none; stroke:#90b8c9; stroke-miterlimit:10; stroke-width:4px;" />
        <circle cx="181.53" cy="383.93" r="14.17" style="fill:#90b8c9;" />
        <circle cx="323.41" cy="347.22" r="14.17" style="fill:#90b8c9;" />
        <circle cx="465.86" cy="333.41" r="14.17" style="fill:#90b8c9;" />
        <circle cx="606.77" cy="341.27" r="14.17" style="fill:#90b8c9;" />
        <circle cx="748.82" cy="332.69" r="14.17" style="fill:#90b8c9;" />
        <circle cx="890.39" cy="312.33" r="14.17" style="fill:#90b8c9;" />
        <circle cx="1031.95" cy="346.93" r="14.17" style="fill:#90b8c9;" />
        <circle cx="1173.37" cy="318.78" r="14.17" style="fill:#90b8c9;" />
    </g>
    <g id="c">
        <line x1="748.03" y1="184.43" x2="890.03" y2="169.43"
            style="fill:none; stroke:#fe5e31; stroke-miterlimit:10; stroke-width:4px;" />
        <circle cx="181.53" cy="163.93" r="14.17" style="fill:#fe5e31;" />
        <circle cx="323.53" cy="163.93" r="14.17" style="fill:#fe5e31;" />
        <circle cx="465.53" cy="156.93" r="14.17" style="fill:#fe5e31;" />
        <circle cx="606.53" cy="163.93" r="14.17" style="fill:#fe5e31;" />
        <circle cx="748.53" cy="184.93" r="14.17" style="fill:#fe5e31;" />
        <circle cx="890.53" cy="170.93" r="14.17" style="fill:#fe5e31;" />
        <circle cx="1031.53" cy="134.93" r="14.17" style="fill:#fe5e31;" />
        <circle cx="1173.53" cy="148.93" r="14.17" style="fill:#fe5e31;" />
        <line x1="181.03" y1="163.43" x2="323.03" y2="163.43"
            style="fill:none; stroke:#fe5e31; stroke-miterlimit:10; stroke-width:4px;" />
        <line x1="323.03" y1="163.43" x2="465.03" y2="156.43"
            style="fill:none; stroke:#fe5e31; stroke-miterlimit:10; stroke-width:4px;" />
        <line x1="465.03" y1="156.43" x2="606.03" y2="164.43"
            style="fill:none; stroke:#fe5e31; stroke-miterlimit:10; stroke-width:4px;" />
        <line x1="606.03" y1="163.43" x2="748.03" y2="184.43"
            style="fill:none; stroke:#fe5e31; stroke-miterlimit:10; stroke-width:4px;" />
        <line x1="890.03" y1="170.43" x2="1031.03" y2="134.43"
            style="fill:none; stroke:#fe5e31; stroke-miterlimit:10; stroke-width:4px;" />
        <line x1="1031.03" y1="134.43" x2="1173.03" y2="149.43"
            style="fill:none; stroke:#fe5e31; stroke-miterlimit:10; stroke-width:4px;" />
    </g>
    <g id="d">
        <circle cx="181.1" cy="446.46" r="14.17" style="fill:#5b7c7d;" />
        <circle cx="323.1" cy="418.46" r="14.17" style="fill:#5b7c7d;" />
        <circle cx="1032.1" cy="418.46" r="14.17" style="fill:#5b7c7d;" />
        <circle cx="1173.1" cy="390.46" r="14.17" style="fill:#5b7c7d;" />
        <circle cx="465.1" cy="418.46" r="14.17" style="fill:#5b7c7d;" />
        <circle cx="606.67" cy="390.46" r="14.17" style="fill:#5b7c7d;" />
        <circle cx="748.67" cy="390.46" r="14.17" style="fill:#5b7c7d;" />
        <line x1="181.03" y1="446.43" x2="323.03" y2="418.43"
            style="fill:none; stroke:#5b7c7d; stroke-miterlimit:10; stroke-width:4px;" />
        <line x1="323.03" y1="418.43" x2="465.03" y2="418.43"
            style="fill:none; stroke:#5b7c7d; stroke-miterlimit:10; stroke-width:4px;" />
        <line x1="466.03" y1="418.43" x2="607.03" y2="390.43"
            style="fill:none; stroke:#5b7c7d; stroke-miterlimit:10; stroke-width:4px;" />
        <line x1="607.03" y1="390.43" x2="749.03" y2="390.43"
            style="fill:none; stroke:#5b7c7d; stroke-miterlimit:10; stroke-width:4px;" />
        <line x1="1032.03" y1="418.43" x2="1173.03" y2="390.43"
            style="fill:none; stroke:#5b7c7d; stroke-miterlimit:10; stroke-width:4px;" />
    </g>
    <g id="e">
        <line x1="891.03" y1="171.43" x2="1032.03" y2="191.43"
            style="fill:none; stroke:#fe9001; stroke-miterlimit:10; stroke-width:4px;" />
        <line x1="748.03" y1="185.43" x2="891.03" y2="171.43"
            style="fill:none; stroke:#fe9001; stroke-miterlimit:10; stroke-width:2px;" />
        <line x1="607.03" y1="220.43" x2="748.03" y2="185.43"
            style="fill:none; stroke:#fe9001; stroke-miterlimit:10; stroke-width:4px;" />
        <circle cx="181.04" cy="276.43" r="14.17" style="fill:#fe9001;" />
        <circle cx="323.5" cy="184.97" r="14.17" style="fill:#fe9001;" />
        <circle cx="606.94" cy="220.87" r="14.17" style="fill:#fe9001;" />
        <path d="M762.53,185.45c0,7.83-6.35,14.17-14.17,14.17s-14.17-6.35-14.17-14.17" style="fill:#fe9001;" />
        <path d="M904.73,171.16c0,7.83-6.35,14.17-14.17,14.17s-14.17-6.35-14.17-14.17" style="fill:#fe9001;" />
        <circle cx="1032.28" cy="191.92" r="14.17" style="fill:#fe9001;" />
        <circle cx="1173.23" cy="191.77" r="14.17" style="fill:#fe9001;" />
        <line x1="181.03" y1="276.43" x2="323.03" y2="185.43"
            style="fill:none; stroke:#fe9001; stroke-miterlimit:10; stroke-width:4px;" />
        <line x1="323.03" y1="185.43" x2="607.03" y2="220.43"
            style="fill:none; stroke:#fe9001; stroke-miterlimit:10; stroke-width:4px;" />
        <line x1="1032.03" y1="191.43" x2="1173.03" y2="191.43"
            style="fill:none; stroke:#fe9001; stroke-miterlimit:10; stroke-width:4px;" />
    </g>
    <g id="f">
        <circle cx="180.67" cy="326.72" r="14.17" style="fill:#fed3a5;" />
        <circle cx="322.67" cy="312.72" r="14.17" style="fill:#fed3a5;" />
        <circle cx="464.67" cy="298.72" r="14.17" style="fill:#fed3a5;" />
        <circle cx="606.67" cy="312.72" r="14.17" style="fill:#fed3a5;" />
        <circle cx="748.67" cy="291.72" r="14.17" style="fill:#fed3a5;" />
        <circle cx="890.67" cy="270.72" r="14.17" style="fill:#fed3a5;" />
        <circle cx="1031.67" cy="270.72" r="14.17" style="fill:#fed3a5;" />
        <circle cx="1173.67" cy="270.72" r="14.17" style="fill:#fed3a5;" />
        <line x1="181.03" y1="326.43" x2="323.03" y2="312.43"
            style="fill:none; stroke:#fed3a5; stroke-miterlimit:10; stroke-width:4px;" />
        <line x1="323.03" y1="312.43" x2="465.03" y2="298.43"
            style="fill:none; stroke:#fed3a5; stroke-miterlimit:10; stroke-width:4px;" />
        <line x1="465.03" y1="298.43" x2="607.03" y2="312.43"
            style="fill:none; stroke:#fed3a5; stroke-miterlimit:10; stroke-width:4px;" />
        <line x1="606.03" y1="312.43" x2="749.03" y2="291.43"
            style="fill:none; stroke:#fed3a5; stroke-miterlimit:10; stroke-width:4px;" />
        <line x1="749.03" y1="291.43" x2="891.03" y2="270.43"
            style="fill:none; stroke:#fed3a5; stroke-miterlimit:10; stroke-width:4px;" />
        <line x1="890.03" y1="270.43" x2="1032.03" y2="270.43"
            style="fill:none; stroke:#fed3a5; stroke-miterlimit:10; stroke-width:4px;" />
        <line x1="1031.03" y1="270.43" x2="1174.03" y2="270.43"
            style="fill:none; stroke:#fed3a5; stroke-miterlimit:10; stroke-width:4px;" />
    </g>
    <g id="g">
        <circle cx="181.1" cy="468.46" r="14.17" style="fill:#b3dee5;" />
        <line x1="181.03" y1="468.43" x2="323.03" y2="440.43"
            style="fill:none; stroke:#b3dee5; stroke-miterlimit:10; stroke-width:4px;" />
        <circle cx="323.1" cy="440.46" r="14.17" style="fill:#b3dee5;" />
        <circle cx="465.1" cy="404.46" r="14.17" style="fill:#b3dee5;" />
        <circle cx="607.1" cy="426.46" r="14.17" style="fill:#b3dee5;" />
        <circle cx="749.1" cy="426.46" r="14.17" style="fill:#b3dee5;" />
        <circle cx="891.1" cy="390.46" r="14.17" style="fill:#b3dee5;" />
        <circle cx="1031.1" cy="426.46" r="14.17" style="fill:#b3dee5;" />
        <circle cx="1173.1" cy="404.46" r="14.17" style="fill:#b3dee5;" />
        <line x1="323.03" y1="440.43" x2="465.03" y2="404.43"
            style="fill:none; stroke:#b3dee5; stroke-miterlimit:10; stroke-width:4px;" />
        <line x1="465.03" y1="404.43" x2="607.03" y2="426.43"
            style="fill:none; stroke:#b3dee5; stroke-miterlimit:10; stroke-width:4px;" />
        <line x1="607.03" y1="426.43" x2="749.03" y2="426.43"
            style="fill:none; stroke:#b3dee5; stroke-miterlimit:10; stroke-width:4px;" />
        <line x1="749.03" y1="426.43" x2="891.03" y2="390.43"
            style="fill:none; stroke:#b3dee5; stroke-miterlimit:10; stroke-width:4px;" />
        <line x1="891.03" y1="390.43" x2="1031.03" y2="426.43"
            style="fill:none; stroke:#b3dee5; stroke-miterlimit:10; stroke-width:4px;" />
        <line x1="1032.03" y1="426.43" x2="1173.03" y2="404.43"
            style="fill:none; stroke:#b3dee5; stroke-miterlimit:10; stroke-width:4px;" />
    </g>
    <g id="h">
        <line x1="110.63" y1="30.43" x2="110.63" y2="567.26"
            style="fill:none; stroke:#000; stroke-linecap:round; stroke-miterlimit:10; stroke-width:1.5px;" />
        <line x1="1216.03" y1="567.43" x2="111.03" y2="567.43"
            style="fill:none; stroke:#000; stroke-linecap:round; stroke-miterlimit:10; stroke-width:1.5px;" /><text
            transform="translate(70.49 501.19)" style="font-family:Hind-Regular, Hind; font-size:18px;">
            <tspan x="0" y="0">10</tspan>
        </text><text transform="translate(70.49 430.29)" style="font-family:Hind-Regular, Hind; font-size:18px;">
            <tspan x="0" y="0">20</tspan>
        </text><text transform="translate(70.49 359.5)" style="font-family:Hind-Regular, Hind; font-size:18px;">
            <tspan x="0" y="0">30</tspan>
        </text><text transform="translate(70.49 288.71)" style="font-family:Hind-Regular, Hind; font-size:18px;">
            <tspan x="0" y="0">40</tspan>
        </text><text transform="translate(70.49 217.92)" style="font-family:Hind-Regular, Hind; font-size:18px;">
            <tspan x="0" y="0">50</tspan>
        </text><text transform="translate(70.49 147.13)" style="font-family:Hind-Regular, Hind; font-size:18px;">
            <tspan x="0" y="0">60</tspan>
        </text><text transform="translate(70.49 76.34)" style="font-family:Hind-Regular, Hind; font-size:18px;">
            <tspan x="0" y="0">70</tspan>
        </text>
        <g style="opacity:.5;">
            <g>
                <line x1="1216.53" y1="212.93" x2="1210.53" y2="212.93"
                    style="fill:none; stroke:#3a4b4d; stroke-miterlimit:10;" />
                <line x1="1198.52" y1="212.93" x2="123.04" y2="212.93"
                    style="fill:none; stroke:#3a4b4d; stroke-dasharray:0 0 12.02 12.02; stroke-miterlimit:10;" />
                <line x1="117.03" y1="212.93" x2="111.03" y2="212.93"
                    style="fill:none; stroke:#3a4b4d; stroke-miterlimit:10;" />
            </g>
        </g><text transform="translate(164.81 596.27)" style="font-family:Hind-Regular, Hind; font-size:18px;">
            <tspan x="0" y="0">1994</tspan>
        </text><text transform="translate(306.38 596.27)" style="font-family:Hind-Regular, Hind; font-size:18px;">
            <tspan x="0" y="0">1998</tspan>
        </text><text transform="translate(445.95 596.27)" style="font-family:Hind-Regular, Hind; font-size:18px;">
            <tspan x="0" y="0">2002</tspan>
        </text><text transform="translate(587.52 596.27)" style="font-family:Hind-Regular, Hind; font-size:18px;">
            <tspan x="0" y="0">2005</tspan>
        </text><text transform="translate(729.09 596.27)" style="font-family:Hind-Regular, Hind; font-size:18px;">
            <tspan x="0" y="0">2009</tspan>
        </text><text transform="translate(873.66 596.27)" style="font-family:Hind-Regular, Hind; font-size:18px;">
            <tspan x="0" y="0">2013</tspan>
        </text><text transform="translate(1015.23 596.27)" style="font-family:Hind-Regular, Hind; font-size:18px;">
            <tspan x="0" y="0">2017</tspan>
        </text><text transform="translate(1156.81 596.27)" style="font-family:Hind-Regular, Hind; font-size:18px;">
            <tspan x="0" y="0">2021</tspan>
        </text><text transform="translate(0 15.11)" style="font-family:Hind-Regular, Hind; font-size:18px;">
            <tspan x="0" y="0">Female Representation (%)</tspan>
        </text><text transform="translate(594 636.11)" style="font-family:Hind-Regular, Hind; font-size:18px;">
            <tspan x="0" y="0">Election Period (Year)</tspan>
        </text>
        <line x1="110.53" y1="29.93" x2="97.03" y2="43.43"
            style="fill:none; stroke:#000; stroke-linecap:round; stroke-miterlimit:10; stroke-width:1.5px;" />
        <line x1="1201.98" y1="553.32" x2="1216.03" y2="567.43"
            style="fill:none; stroke:#000; stroke-linecap:round; stroke-miterlimit:10; stroke-width:1.5px;" />
        <line x1="1201.68" y1="581.86" x2="1216.03" y2="567.43"
            style="fill:none; stroke:#000; stroke-linecap:round; stroke-miterlimit:10; stroke-width:1.5px;" />
        <line x1="110.53" y1="29.93" x2="125.03" y2="43.43"
            style="fill:none; stroke:#000; stroke-linecap:round; stroke-miterlimit:10; stroke-width:1.5px;" />
        <line x1="103.53" y1="71.93" x2="117.53" y2="71.93"
            style="fill:none; stroke:#000; stroke-linecap:round; stroke-miterlimit:10;" />
        <line x1="103.53" y1="283.93" x2="117.53" y2="283.93"
            style="fill:none; stroke:#000; stroke-linecap:round; stroke-miterlimit:10;" />
        <line x1="103.53" y1="354.93" x2="117.53" y2="354.93"
            style="fill:none; stroke:#000; stroke-linecap:round; stroke-miterlimit:10;" />
        <line x1="103.53" y1="425.93" x2="117.53" y2="425.93"
            style="fill:none; stroke:#000; stroke-linecap:round; stroke-miterlimit:10;" />
        <line x1="103.53" y1="496.93" x2="117.53" y2="496.93"
            style="fill:none; stroke:#000; stroke-linecap:round; stroke-miterlimit:10;" />
        <line x1="181.53" y1="573.93" x2="181.53" y2="559.93"
            style="fill:none; stroke:#000; stroke-linecap:round; stroke-miterlimit:10;" />
        <line x1="323.53" y1="573.93" x2="323.53" y2="559.93"
            style="fill:none; stroke:#000; stroke-linecap:round; stroke-miterlimit:10;" />
        <line x1="465.53" y1="573.93" x2="465.53" y2="559.93"
            style="fill:none; stroke:#000; stroke-linecap:round; stroke-miterlimit:10;" />
        <line x1="607.53" y1="573.93" x2="607.53" y2="559.93"
            style="fill:none; stroke:#000; stroke-linecap:round; stroke-miterlimit:10;" />
        <line x1="890.53" y1="573.93" x2="890.53" y2="559.93"
            style="fill:none; stroke:#000; stroke-linecap:round; stroke-miterlimit:10;" />
        <line x1="1031.53" y1="573.93" x2="1031.53" y2="559.93"
            style="fill:none; stroke:#000; stroke-linecap:round; stroke-miterlimit:10;" />
        <line x1="1173.53" y1="573.93" x2="1173.53" y2="559.93"
            style="fill:none; stroke:#000; stroke-linecap:round; stroke-miterlimit:10;" />
        <line x1="103.53" y1="212.93" x2="117.53" y2="212.93"
            style="fill:none; stroke:#000; stroke-linecap:round; stroke-miterlimit:10;" />
        <line x1="103.53" y1="141.93" x2="117.53" y2="141.93"
            style="fill:none; stroke:#000; stroke-linecap:round; stroke-miterlimit:10;" />
        <line x1="748.53" y1="573.93" x2="748.53" y2="559.93"
            style="fill:none; stroke:#000; stroke-linecap:round; stroke-miterlimit:10;" />
    </g>
</svg>